<?xml version="1.0" standalone="no"?>
<!DOCTYPE svg PUBLIC "-//W3C//DTD SVG 20010904//EN"
 "http://www.w3.org/TR/2001/REC-SVG-20010904/DTD/svg10.dtd">
<svg version="1.0" xmlns="http://www.w3.org/2000/svg"
 width="256.000000pt" height="256.000000pt" viewBox="0 0 256.000000 256.000000"
 preserveAspectRatio="xMidYMid meet">

<g transform="translate(0.000000,256.000000) scale(0.100000,-0.100000)"
fill="#000000" stroke="none">
<path d="M1563 2377 c-44 -17 -47 -22 -18 -37 14 -7 25 -16 25 -20 0 -3 -25
-14 -55 -24 -62 -19 -75 -36 -75 -100 0 -35 -5 -48 -20 -56 -12 -6 -20 -21
-20 -35 0 -23 -3 -25 -52 -25 -29 0 -103 3 -165 7 l-112 6 -3 41 c-2 34 -7 42
-25 44 -19 3 -23 10 -23 41 0 54 11 61 94 54 l71 -6 -24 26 c-27 30 -22 43 19
52 17 4 30 11 30 16 0 12 -2 12 -56 -11 -46 -20 -46 -21 -29 -40 18 -20 17
-20 -33 -20 -74 0 -82 -5 -82 -56 0 -37 -4 -46 -24 -56 -19 -8 -26 -20 -28
-46 -3 -30 -8 -37 -39 -48 -56 -19 -197 -103 -214 -127 -9 -13 -15 -44 -15
-79 0 -57 -1 -58 -39 -77 -57 -29 -91 -74 -93 -124 -7 -138 11 -173 105 -207
26 -9 27 -12 27 -78 0 -59 3 -72 24 -91 34 -32 152 -60 279 -68 102 -6 107 -7
107 -28 0 -21 -6 -22 -89 -28 -48 -3 -105 -13 -126 -21 -20 -9 -55 -16 -77
-16 -32 0 -47 -7 -74 -34 l-34 -34 0 -208 c1 -141 5 -218 13 -236 13 -30 82
-88 103 -88 8 0 14 -9 14 -20 0 -11 -7 -20 -15 -20 -8 0 -18 -12 -21 -27 -4
-16 -17 -39 -30 -53 -19 -21 -23 -37 -25 -97 l-2 -73 -169 0 c-110 0 -167 -3
-163 -10 4 -7 305 -10 871 -10 569 0 864 3 864 10 0 6 -62 10 -165 10 l-165 0
0 65 c0 57 -3 68 -30 98 -17 20 -30 46 -30 61 0 24 -4 26 -40 26 l-40 0 0 60
c0 66 -3 64 60 28 44 -25 64 -29 91 -18 26 11 49 46 49 75 0 8 5 15 10 15 15
0 13 392 -2 425 -16 36 -57 55 -118 55 -28 0 -61 6 -73 14 -14 9 -68 17 -149
21 -126 7 -128 8 -128 31 l0 24 157 0 c136 0 162 3 198 20 58 28 75 63 75 152
0 62 3 75 20 85 73 47 74 254 0 293 -18 10 -20 21 -20 103 0 73 -4 98 -20 124
-30 49 -54 57 -185 63 l-120 5 -3 38 c-3 32 -7 37 -28 37 -24 0 -25 2 -22 57
l3 56 62 21 c34 12 65 24 68 28 4 3 -6 14 -21 24 l-27 18 39 17 c44 20 26 24
-23 6z m-503 -252 c0 -35 0 -35 -45 -35 -45 0 -45 0 -45 35 0 35 0 35 45 35
45 0 45 0 45 -35z m431 5 c5 0 9 -11 9 -25 0 -22 -4 -25 -40 -25 -36 0 -40 3
-40 24 0 25 21 38 48 30 8 -2 18 -4 23 -4z m-114 -64 c355 -13 372 -14 402
-35 49 -35 53 -65 49 -404 l-3 -309 -37 -34 -38 -34 -396 0 c-345 0 -400 2
-430 16 -65 31 -64 24 -64 395 l0 337 27 32 c29 35 55 49 93 49 14 0 192 -6
397 -13z m-517 -48 c-19 -31 -20 -52 -20 -358 0 -306 1 -327 20 -357 11 -18
24 -33 30 -33 5 0 10 -4 10 -9 0 -5 -37 2 -82 15 -103 29 -118 45 -118 125 0
55 2 60 25 69 42 16 65 80 65 180 0 95 -19 143 -65 160 -22 8 -25 15 -25 57 0
70 17 93 100 140 41 24 76 43 77 43 2 0 -6 -15 -17 -32z m-107 -249 c28 -38
34 -140 13 -212 -17 -57 -36 -77 -75 -77 -25 0 -26 3 -4 36 11 17 18 54 21
108 4 78 0 97 -36 169 -2 5 11 7 28 5 22 -2 40 -12 53 -29z m-76 -16 c14 -20
18 -47 18 -108 0 -91 -17 -138 -52 -143 l-23 -3 20 43 c24 52 26 144 5 195
-18 44 -18 43 0 43 8 0 23 -12 32 -27z m1205 -24 c24 -45 24 -143 0 -188 -35
-69 -42 -53 -42 94 0 147 7 163 42 94z m-1251 4 c21 -25 18 -153 -5 -188 -17
-25 -19 -26 -34 -11 -32 32 -17 216 17 216 5 0 15 -7 22 -17z m529 -528 c0
-20 -5 -25 -25 -25 -20 0 -25 5 -25 25 0 20 5 25 25 25 20 0 25 -5 25 -25z
m230 0 l0 -25 -110 0 -110 0 0 25 0 25 110 0 110 0 0 -25z m17 -45 c252 0 252
0 280 -24 l28 -24 0 -180 c0 -177 0 -181 -24 -206 l-24 -26 -305 0 -304 0 -29
29 -29 29 0 175 c0 160 2 176 20 200 23 29 49 37 100 31 19 -2 148 -4 287 -4z
m-403 -21 c-17 -19 -19 -38 -19 -204 0 -176 1 -184 23 -207 31 -33 28 -40 -15
-36 l-38 3 -5 196 c-4 175 -7 199 -24 218 -11 12 -26 21 -35 21 -20 0 -3 16
24 23 11 3 40 5 64 6 l44 1 -19 -21z m812 -19 c54 -19 59 -37 62 -252 l4 -198
-76 0 -76 0 0 214 c0 118 -3 221 -6 230 -5 13 1 16 28 16 19 0 48 -5 64 -10z
m-900 -21 c17 -19 19 -41 22 -225 l3 -204 -70 0 -71 0 0 198 c0 152 -3 203
-14 225 l-15 27 63 0 c51 0 66 -4 82 -21z m-140 -24 c10 -26 14 -80 14 -220
l0 -185 -41 0 -40 0 3 193 c3 164 6 197 21 220 9 15 20 27 23 27 3 0 12 -16
20 -35z m944 -375 c0 -25 -4 -30 -25 -30 -31 0 -31 7 -3 37 27 29 28 29 28 -7z
m-720 -110 l0 -90 -45 0 c-44 0 -45 1 -45 31 0 17 9 42 20 56 11 14 20 41 20
59 0 30 3 34 25 34 25 0 25 -1 25 -90z m160 0 l0 -90 -75 0 -75 0 0 90 0 90
75 0 75 0 0 -90z m230 0 c0 -89 0 -90 -24 -90 -19 0 -26 -7 -31 -29 -3 -15
-16 -37 -29 -49 -13 -11 -26 -26 -28 -33 -7 -22 -67 52 -68 84 0 20 -5 27 -20
27 -19 0 -20 7 -20 90 l0 90 110 0 110 0 0 -90z m90 0 l0 -90 -40 0 -40 0 0
90 0 90 40 0 40 0 0 -90z m180 0 l0 -90 -85 0 -85 0 0 90 0 90 85 0 85 0 0
-90z m-897 64 c8 -9 -11 -44 -23 -44 -6 0 -10 8 -10 18 0 27 18 41 33 26z m41
-3 c3 -4 -4 -17 -15 -27 -21 -19 -21 -18 -8 9 13 30 15 31 23 18z m111 -1 c3
-5 1 -10 -4 -10 -6 0 -11 5 -11 10 0 6 2 10 4 10 3 0 8 -4 11 -10z m803 -25
c-3 -14 -6 -13 -28 2 l-24 17 24 6 c26 7 34 0 28 -25z m135 29 c11 -11 -15
-63 -35 -69 -32 -11 -67 3 -74 30 -3 13 -3 29 1 34 6 11 97 15 108 5z m-965
-16 c32 -32 -3 -78 -58 -78 -52 0 -65 19 -34 49 13 13 24 27 24 32 0 13 54 11
68 -3z m47 -17 c-3 -12 -10 -21 -15 -21 -5 0 -4 11 2 25 13 29 23 26 13 -4z
m-35 -91 c0 -25 -4 -30 -25 -30 -30 0 -35 33 -7 49 27 16 32 13 32 -19z m0
-70 c0 -17 -7 -20 -45 -20 -38 0 -45 3 -45 20 0 17 7 20 45 20 38 0 45 -3 45
-20z m300 0 c0 -19 -7 -20 -145 -20 -138 0 -145 1 -145 20 0 19 7 20 145 20
138 0 145 -1 145 -20z m260 0 c0 -18 -7 -20 -55 -20 -48 0 -55 2 -55 20 0 18
7 20 55 20 48 0 55 -2 55 -20z m280 0 c0 -20 -5 -20 -132 -18 -117 3 -133 5
-136 21 -3 15 8 17 132 17 130 0 136 -1 136 -20z m-850 -37 c0 -5 -7 -17 -15
-27 -10 -13 -15 -43 -15 -83 l0 -63 -55 0 -55 0 0 65 c0 57 3 69 25 90 18 19
35 25 70 25 25 0 45 -3 45 -7z m341 -22 c26 -26 29 -36 29 -90 l0 -61 -190 0
-190 0 0 68 c0 104 10 110 193 111 l129 1 29 -29z m213 8 c-13 -15 -20 -40
-22 -90 l-4 -69 -74 0 -74 0 0 33 c0 102 41 147 133 147 l60 0 -19 -21z m328
-6 c17 -18 23 -37 26 -88 l4 -65 -181 0 -181 0 0 61 c0 68 11 96 43 109 12 5
77 9 144 7 112 -2 124 -4 145 -24z"/>
<path d="M954 2025 c-51 -21 -54 -39 -54 -371 l0 -306 29 -29 29 -29 389 0
c289 1 392 4 404 13 36 28 39 50 39 351 l0 296 -27 30 -28 31 -270 9 c-148 5
-318 11 -376 13 -70 3 -116 0 -135 -8z m595 -22 c161 -6 176 -8 200 -29 l26
-22 0 -302 0 -302 -28 -24 -28 -24 -365 0 c-397 0 -414 2 -434 56 -15 38 -13
590 2 617 28 53 27 53 627 30z"/>
<path d="M1054 1716 c-59 -50 -22 -146 56 -146 49 0 80 33 80 84 0 75 -79 112
-136 62z m109 -18 c24 -28 21 -65 -8 -93 -30 -30 -54 -31 -89 -4 -44 35 -31
102 24 122 23 8 53 -2 73 -25z"/>
<path d="M1549 1730 c-23 -14 -42 -65 -35 -95 16 -63 93 -86 136 -40 66 70
-19 183 -101 135z m85 -21 c36 -29 33 -83 -6 -112 -23 -17 -31 -18 -57 -7 -53
22 -59 104 -8 128 32 16 41 14 71 -9z"/>
<path d="M1270 1505 l0 -76 88 3 87 3 0 70 0 70 -87 3 -88 3 0 -76z m123 59
l37 -7 0 -53 0 -54 -75 0 -75 0 0 53 c0 30 3 57 7 60 8 9 56 9 106 1z"/>
<path d="M603 1635 c0 -22 2 -30 4 -17 2 12 2 30 0 40 -3 9 -5 -1 -4 -23z"/>
<path d="M1056 1098 c-13 -18 -16 -53 -16 -170 0 -135 2 -150 20 -168 19 -19
33 -20 299 -20 l280 0 20 26 c19 24 21 40 21 166 0 134 -1 140 -25 163 l-24
25 -280 0 c-278 0 -280 0 -295 -22z m591 -10 c10 -8 13 -50 13 -159 0 -141 -1
-149 -22 -163 -19 -14 -64 -16 -285 -16 -329 0 -303 -16 -303 180 0 200 -27
185 314 176 167 -4 275 -11 283 -18z"/>
<path d="M1104 1036 c-11 -28 1 -51 25 -51 32 0 49 28 32 49 -17 20 -50 21
-57 2z m43 -12 c8 -21 -13 -42 -28 -27 -13 13 -5 43 11 43 6 0 13 -7 17 -16z"/>
<path d="M1570 1035 c-18 -21 -3 -55 25 -55 15 0 26 7 30 20 7 23 -10 50 -30
50 -7 0 -18 -7 -25 -15z m40 -18 c0 -8 -3 -17 -7 -20 -9 -9 -34 13 -27 24 8
14 34 11 34 -4z"/>
<path d="M1283 1033 c48 -2 125 -2 170 0 45 1 6 3 -88 3 -93 0 -130 -2 -82 -3z"/>
<path d="M1152 888 c-28 -28 -3 -72 39 -66 30 4 47 33 33 56 -14 21 -55 27
-72 10z m53 -28 c0 -29 -32 -41 -41 -16 -9 24 4 48 23 44 12 -2 18 -12 18 -28z"/>
<path d="M1312 888 c-29 -29 -3 -72 40 -66 19 2 23 9 23 38 0 30 -4 35 -25 38
-14 2 -31 -3 -38 -10z m48 -14 c11 -12 10 -18 -4 -32 -16 -16 -18 -16 -31 2
-11 14 -12 23 -4 33 15 17 24 16 39 -3z"/>
<path d="M1470 881 c-16 -31 4 -63 37 -59 34 4 52 32 37 56 -16 26 -60 28 -74
3z m58 -15 c5 -24 -10 -38 -31 -30 -17 6 -23 35 -10 48 12 12 38 1 41 -18z"/>
</g>
</svg>
